<?xml version="1.0" standalone="no"?>
<!DOCTYPE svg PUBLIC "-//W3C//DTD SVG 20010904//EN"
 "http://www.w3.org/TR/2001/REC-SVG-20010904/DTD/svg10.dtd">
<svg version="1.0" xmlns="http://www.w3.org/2000/svg"
 width="16.000000pt" height="16.000000pt" viewBox="0 0 16.000000 16.000000"
 preserveAspectRatio="xMidYMid meet">
<metadata>
Created by potrace 1.11, written by Peter Selinger 2001-2013
</metadata>
<g transform="translate(0.000000,16.000000) scale(0.006154,-0.006154)"
fill="#000000" stroke="none">
<path d="M1315 2475 c-104 -29 -146 -47 -227 -101 -128 -85 -231 -221 -283
-373 -27 -81 -37 -156 -37 -303 -1 -57 -3 -107 -5 -111 -3 -4 -23 9 -45 29
-162 146 -411 82 -482 -125 -21 -62 -15 -165 14 -221 14 -29 110 -133 270
-295 l248 -250 0 -147 c0 -164 4 -184 35 -194 12 -4 327 -7 699 -7 643 0 679
1 698 18 20 18 20 29 20 734 -1 793 -2 800 -66 939 -77 168 -192 285 -355 362
-98 45 -172 62 -294 65 -90 2 -125 -1 -190 -20z m90 -569 c22 -9 52 -28 66
-42 l27 -26 46 36 c26 19 63 38 84 42 20 4 46 8 57 10 43 8 126 -26 169 -70
130 -130 84 -298 -135 -490 -72 -63 -211 -163 -219 -158 -3 2 -21 13 -40 25
-72 43 -199 148 -259 214 -80 88 -123 174 -123 246 0 164 174 277 327 213z"/>
<path d="M900 210 c0 -34 6 -64 16 -78 l15 -22 558 0 c456 0 561 2 576 14 15
11 19 27 19 77 l1 64 -592 0 -593 0 0 -55z"/>
</g>
</svg>
